<svg xmlns="http://www.w3.org/2000/svg" width="16" height="16" viewBox="0 0 202 192" fill="none">
    <path d="M65.6124 52.1167C70.3641 58.8629 84.176 77.4714 91.2819 86.9979C93.4477 85.8807 95.8317 85.1252 98.3535 84.8118V65.3053C98.3535 63.8485 99.5384 62.6676 101 62.6676C102.462 62.6676 103.646 63.8485 103.646 65.3053V84.8118C106.168 85.1252 108.552 85.8807 110.718 86.9979C117.824 77.4714 131.636 58.8629 136.388 52.1167C142.58 43.3243 140.811 32.7734 127.541 22.2225C116.924 13.7818 105.423 5.22388 101 2C96.5766 5.22388 85.0756 13.7818 74.4593 22.2225C61.189 32.7734 59.4196 43.3243 65.6124 52.1167Z" fill="var(--color-gray-500)" />
    <path d="M38.5542 123.458C46.4152 121.007 68.3163 113.573 79.5393 109.734C79.1499 107.321 79.1708 104.812 79.653 102.308L61.169 96.2802C59.7886 95.83 59.0357 94.334 59.4874 92.9389C59.9391 91.5437 61.4242 90.7776 62.8046 91.2278L81.2887 97.2556C82.3649 94.9453 83.8175 92.9031 85.5454 91.181C78.7141 81.4543 65.3492 62.5198 60.4249 55.8994C54.0071 47.2711 43.4625 45.6997 29.364 55.1064C18.0851 62.6318 6.4218 70.9654 2 74.1916C3.68797 79.4102 8.24331 93.0329 12.9609 105.775C18.858 121.702 28.309 126.652 38.5542 123.458Z" fill="var(--color-gray-500)" />
    <path d="M97.7939 171.331C97.5006 163.07 97.6243 139.867 97.4547 127.968C95.0482 127.594 92.677 126.799 90.4533 125.565L79.0296 141.346C78.1764 142.525 76.5263 142.781 75.3438 141.919C74.1613 141.057 73.8943 139.402 74.7475 138.224L86.1712 122.443C84.3146 120.701 82.8283 118.684 81.7304 116.502C70.4026 120.017 48.3307 126.924 40.5357 129.578C30.3764 133.038 25.6289 142.618 30.1858 158.982C33.8314 172.074 38.124 185.782 39.8146 191C45.2813 191.001 59.5976 190.863 73.1295 190.297C90.0445 189.59 97.6549 182.098 97.7939 171.331Z" fill="var(--color-gray-500)" />
    <path d="M161.464 129.578C153.669 126.924 131.597 120.017 120.27 116.502C119.172 118.684 117.685 120.701 115.829 122.443L127.253 138.224C128.106 139.402 127.839 141.057 126.656 141.919C125.474 142.781 123.824 142.525 122.97 141.346L111.547 125.565C109.323 126.799 106.952 127.594 104.545 127.968C104.376 139.867 104.099 163.07 104.206 171.331C104.345 182.098 111.956 189.59 128.871 190.297C142.402 190.863 156.719 191.001 162.185 191C163.876 185.782 168.169 172.074 171.814 158.982C176.371 142.618 171.624 133.038 161.464 129.578Z" fill="var(--color-gray-500)" />
    <path d="M141.575 55.8995C136.651 62.5198 123.286 81.4543 116.455 91.181C118.183 92.9031 119.635 94.9454 120.711 97.2557L139.195 91.2278C140.576 90.7776 142.061 91.5437 142.513 92.9389C142.964 94.3341 142.211 95.83 140.831 96.2802L122.347 102.308C122.829 104.812 122.85 107.321 122.461 109.734C133.684 113.573 155.585 121.007 163.446 123.458C173.691 126.652 183.142 121.702 189.039 105.775C193.757 93.0329 198.312 79.4102 200 74.1916C195.578 70.9654 183.915 62.6318 172.636 55.1064C158.537 45.6997 147.993 47.2711 141.575 55.8995Z" fill="var(--color-gray-500)" />
    <path d="M101 122.414C109.77 122.414 116.879 115.278 116.879 106.477C116.879 97.6748 109.77 90.5395 101 90.5395C92.2304 90.5395 85.1211 97.6748 85.1211 106.477C85.1211 115.278 92.2304 122.414 101 122.414Z" fill="var(--color-gray-500)" />
    <path d="M65.6124 52.1167C70.3641 58.8629 84.176 77.4714 91.2819 86.9979C93.4477 85.8807 95.8317 85.1252 98.3535 84.8118V65.3053C98.3535 63.8485 99.5384 62.6676 101 62.6676C102.462 62.6676 103.646 63.8485 103.646 65.3053V84.8118C106.168 85.1252 108.552 85.8807 110.718 86.9979C117.824 77.4714 131.636 58.8629 136.388 52.1167C142.58 43.3243 140.811 32.7734 127.541 22.2225C116.924 13.7818 105.423 5.22388 101 2C96.5766 5.22388 85.0756 13.7818 74.4593 22.2225C61.189 32.7734 59.4196 43.3243 65.6124 52.1167Z" stroke="var(--color-gray-900)" stroke-width="8" />
    <path d="M38.5542 123.458C46.4152 121.007 68.3163 113.573 79.5393 109.734C79.1499 107.321 79.1708 104.812 79.653 102.308L61.169 96.2802C59.7886 95.83 59.0357 94.334 59.4874 92.9389C59.9391 91.5437 61.4242 90.7776 62.8046 91.2278L81.2887 97.2556C82.3649 94.9453 83.8175 92.9031 85.5454 91.181C78.7141 81.4543 65.3492 62.5198 60.4249 55.8994C54.0071 47.2711 43.4625 45.6997 29.364 55.1064C18.0851 62.6318 6.4218 70.9654 2 74.1916C3.68797 79.4102 8.24331 93.0329 12.9609 105.775C18.858 121.702 28.309 126.652 38.5542 123.458Z" stroke="var(--color-gray-900)" stroke-width="8" />
    <path d="M97.7939 171.331C97.5006 163.07 97.6243 139.867 97.4547 127.968C95.0482 127.594 92.677 126.799 90.4533 125.565L79.0296 141.346C78.1764 142.525 76.5263 142.781 75.3438 141.919C74.1613 141.057 73.8943 139.402 74.7475 138.224L86.1712 122.443C84.3146 120.701 82.8283 118.684 81.7304 116.502C70.4026 120.017 48.3307 126.924 40.5357 129.578C30.3764 133.038 25.6289 142.618 30.1858 158.982C33.8314 172.074 38.124 185.782 39.8146 191C45.2813 191.001 59.5976 190.863 73.1295 190.297C90.0445 189.59 97.6549 182.098 97.7939 171.331Z" stroke="var(--color-gray-900)" stroke-width="8" />
    <path d="M161.464 129.578C153.669 126.924 131.597 120.017 120.27 116.502C119.172 118.684 117.685 120.701 115.829 122.443L127.253 138.224C128.106 139.402 127.839 141.057 126.656 141.919C125.474 142.781 123.824 142.525 122.97 141.346L111.547 125.565C109.323 126.799 106.952 127.594 104.545 127.968C104.376 139.867 104.099 163.07 104.206 171.331C104.345 182.098 111.956 189.59 128.871 190.297C142.402 190.863 156.719 191.001 162.185 191C163.876 185.782 168.169 172.074 171.814 158.982C176.371 142.618 171.624 133.038 161.464 129.578Z" stroke="var(--color-gray-900)" stroke-width="8" />
    <path d="M141.575 55.8995C136.651 62.5198 123.286 81.4543 116.455 91.181C118.183 92.9031 119.635 94.9454 120.711 97.2557L139.195 91.2278C140.576 90.7776 142.061 91.5437 142.513 92.9389C142.964 94.3341 142.211 95.83 140.831 96.2802L122.347 102.308C122.829 104.812 122.85 107.321 122.461 109.734C133.684 113.573 155.585 121.007 163.446 123.458C173.691 126.652 183.142 121.702 189.039 105.775C193.757 93.0329 198.312 79.4102 200 74.1916C195.578 70.9654 183.915 62.6318 172.636 55.1064C158.537 45.6997 147.993 47.2711 141.575 55.8995Z" stroke="var(--color-gray-900)" stroke-width="8" />
    <path d="M101 122.414C109.77 122.414 116.879 115.278 116.879 106.477C116.879 97.6748 109.77 90.5395 101 90.5395C92.2304 90.5395 85.1211 97.6748 85.1211 106.477C85.1211 115.278 92.2304 122.414 101 122.414Z" stroke="var(--color-gray-900)" stroke-width="2" />
</svg>