<svg class="saturn" width="32" height="30" viewBox="0 0 45 43" fill="none" xmlns="http://www.w3.org/2000/svg">
    <circle cx="23" cy="19" r="14" fill="var(--color-gray-900)" stroke="var(--color-gray-600)" stroke-width="2" />
    <path d="M5.89286 17L4.54531 17.3694C2.8061 17.8462 2.4638 20.1632 3.99086 21.1225V21.1225C4.18606 21.2451 4.40036 21.3343 4.62492 21.3864L9.0906 22.4222C10.5282 22.7556 11.9888 22.9802 13.4601 23.094L17.5465 23.4099C22.6239 23.8025 27.7266 23.7304 32.7909 23.1946L35.3571 22.9231L41.3049 21.4285C41.6213 21.349 41.9156 21.1989 42.1657 20.9894V20.9894C43.433 19.9279 43.0873 17.8944 41.5404 17.3114L40.7143 17" stroke="var(--color-gray-600)" stroke-width="2" />
    <circle cx="12.5" cy="1.5" r="1.5" fill="var(--color-gray-500)" />
    <circle cx="31" cy="40" r="2.5" fill="var(--color-gray-900)" stroke="var(--color-gray-400)" />
</svg>